<svg xmlns="http://www.w3.org/2000/svg" viewBox="0 0 205.48 243.45"><defs><style>.cls-1{fill:#100d0d;}</style></defs><title>empresarialAtivo 4</title><g id="Camada_2" data-name="Camada 2"><g id="Layer_1" data-name="Layer 1"><path class="cls-1" d="M121.69,179.42a46.48,46.48,0,0,1,57.56-45.15V57.34h-56.4V0H0V243.45H179.25V224.56a46.48,46.48,0,0,1-57.56-45.14ZM30,46.16H93.06v6H30Zm0,36.65H149.3v6H30Zm0,36.66H149.3v6H30Zm78.12,79.29H30v-6h78.12Zm3.7-36.66H30v-6h81.82Z"/><path class="cls-1" d="M168.17,142.11a37.31,37.31,0,1,0,37.31,37.31A37.31,37.31,0,0,0,168.17,142.11ZM182,193.3a13.1,13.1,0,0,1-5.19,4.55,16.47,16.47,0,0,1-4.65,1.34v9.19H166v-9.14a19.15,19.15,0,0,1-5-1.11,17.13,17.13,0,0,1-4.49-2.7,16.57,16.57,0,0,1-3.66-4.22l-.54-.91,4.88-3.71.71.95a13,13,0,0,0,8.06,5.28V177a57.85,57.85,0,0,1-5.24-2.8,13,13,0,0,1-4-4.14,11,11,0,0,1,.14-10.73,11.63,11.63,0,0,1,3.93-4,13.65,13.65,0,0,1,5.18-1.77v-3.12h6.15v3.38a13.28,13.28,0,0,1,4.32,1.82,16.3,16.3,0,0,1,4.15,4.21l.64.9-5,4.05-.72-1.1a8.39,8.39,0,0,0-3.42-3.17v12.11c4.88,2.62,7.88,4.73,9.17,6.46a12.69,12.69,0,0,1,2.61,7.73A11.55,11.55,0,0,1,182,193.3Z"/><path class="cls-1" d="M162.63,162.3a4.71,4.71,0,0,0-.61,2.38,4.21,4.21,0,0,0,.94,2.8,11,11,0,0,0,3.07,2.38V160a5.77,5.77,0,0,0-1.72.62A4.57,4.57,0,0,0,162.63,162.3Z"/><path class="cls-1" d="M172.18,179.87v12.76a7.74,7.74,0,0,0,3.57-2,5.14,5.14,0,0,0,1.75-3.77,6.1,6.1,0,0,0-1.36-3.84A14.56,14.56,0,0,0,172.18,179.87Z"/><polygon class="cls-1" points="122.85 12.5 168.04 57.69 179.25 57.69 122.85 0 122.85 12.5"/></g></g></svg>