<svg xmlns="http://www.w3.org/2000/svg" viewBox="0 0 245.74 186.7"><defs><style>.cls-1{fill:#100d0d;}</style></defs><title>familiaAtivo 6</title><g id="Camada_2" data-name="Camada 2"><g id="Layer_1" data-name="Layer 1"><polygon class="cls-1" points="245.74 40.35 221.9 4.09 197.64 40.35 245.74 40.35"/><polygon class="cls-1" points="190.51 52.34 149.19 157.11 242.39 52.34 190.51 52.34"/><polygon class="cls-1" points="210.21 0 146.21 0 185.39 37.11 210.21 0"/><polygon class="cls-1" points="68.12 52.34 119.7 183.13 122.87 186.7 126.05 183.13 177.61 52.34 68.12 52.34"/><polygon class="cls-1" points="171.37 40.35 128.77 0 116.98 0 74.38 40.35 171.37 40.35"/><polygon class="cls-1" points="99.54 0 35.54 0 60.36 37.11 99.54 0"/><polygon class="cls-1" points="3.35 52.34 96.54 157.1 55.24 52.34 3.35 52.34"/><polygon class="cls-1" points="23.84 4.09 0 40.35 48.1 40.35 23.84 4.09"/></g></g></svg>