<svg xmlns="http://www.w3.org/2000/svg" viewBox="0 0 156.68 241.04"><defs><style>.cls-1{fill:#100d0d;}</style></defs><title>pessoal2Ativo 1</title><g id="Camada_2" data-name="Camada 2"><g id="Layer_1" data-name="Layer 1"><path class="cls-1" d="M141.93,0H14.75A14.75,14.75,0,0,0,0,14.75V226.29A14.75,14.75,0,0,0,14.75,241H141.93a14.75,14.75,0,0,0,14.75-14.75V14.75A14.75,14.75,0,0,0,141.93,0ZM71.09,10.87h14.5a4.4,4.4,0,0,1,0,8.8H71.09a4.4,4.4,0,0,1,0-8.8Zm7.25,218.58a6.7,6.7,0,1,1,6.69-6.7A6.7,6.7,0,0,1,78.34,229.45ZM136.59,204H20.08V26.83H136.59Z"/><rect class="cls-1" x="38.93" y="111.43" width="21.15" height="68.27"/><rect class="cls-1" x="67.76" y="89.91" width="21.15" height="89.78"/><rect class="cls-1" x="96.6" y="61.34" width="21.15" height="118.35"/></g></g></svg>